<svg xmlns="http://www.w3.org/2000/svg">
	<symbol id="chariz-flame" viewBox="0 0 186 300">
		<title>Chariz Logo</title>
		<path d="M187.44 195.186c-1.363-13.886-5.412-28.39-11.71-41.937-5.714-12.34-13.213-24.15-22.27-35.06-2.544-3.08-5.13-6.04-6.464-7.4l-3.075-3.32c-.75-.85-1.38-1.53-2-2.14l-.92-.92c-1-1-2.04-2.04-2.9-3.07-.06-.09-.14-.17-.21-.25-.42-.46-.86-.91-1.37-1.41-.65-.66-1.39-1.39-2.05-2.2-.08-.11-.17-.21-.26-.31-4.69-5.09-8.63-9.71-12.05-14.13-4-5.2-6.83-9.5-9.18-13.98-2.72-5.11-4.75-10.79-6.04-16.93-1.22-5.57-1.93-11.95-2.12-19.01-.19-6.27.2-12.28.6-17.3.29-3.34.62-6.3.94-8.92a6.14 6.14 0 0 0-2.11-5.41c-1.6-1.32-3.74-1.82-5.75-1.3-2.99.77-6.06 1.8-9.11 3.04-6.38 2.57-12.66 6.14-18.68 10.63-7.66 5.743-14.38 12.84-19.96 21.08-6.85 10.065-11.69 21.905-14.01 34.2-2.64 13.525-2.35 28.79.82 42.95 3.01 13.71 8.83 27.71 16.86 40.53 4.244 6.674 8.31 12.254 12.34 16.94 1.2 1.472 4.504 5.28 4.538 5.322l1.32 1.49a122.797 122.797 0 0 1 2.255 2.605c.62.73 1.13 1.334 1.7 1.935l.09.1c6.28 7.417 10.71 12.86 14.37 17.68 4.04 5.3 7.59 10.44 10.85 15.704 3.47 5.63 5.96 10.55 7.81 15.46 2.09 5.59 3.47 11.65 4.1 18.03.59 5.62.59 11.92.01 19.23-.58 6.63-1.622 12.67-2.445 17.09-.615 3.03-1.22 5.82-1.77 8.23a6.16 6.16 0 0 0 1.623 5.69 6.293 6.293 0 0 0 4.51 1.88c.4 0 .8-.03 1.2-.11 2.95-.57 5.79-1.31 8.6-2.26 6.566-2.1 13.04-5.17 19.23-9.09 8.03-5.01 15.27-11.43 21.535-19.07 7.59-9.26 13.516-20.38 17.14-32.15 4.06-13.09 5.445-27.66 3.993-42.13zM64.27 233.158c-2.617-5.648-6.04-11.043-10.16-16-1.036-1.256-2.29-2.697-2.902-3.324l-1.448-1.562c-.377-.42-.65-.71-.94-1l-.395-.392c-.46-.453-.917-.915-1.307-1.374-.07-.08-.14-.164-.216-.242l-.544-.558c-.317-.322-.628-.635-.895-.964-.07-.083-.14-.167-.217-.248-2.07-2.24-3.85-4.328-5.42-6.346-1.324-1.733-2.86-3.844-4.217-6.424-1.25-2.33-2.17-4.917-2.76-7.735-.56-2.54-.88-5.45-.97-8.67-.08-2.67.07-5.2.19-6.86.16-2.2-.88-4.32-2.73-5.57s-4.22-1.43-6.24-.48c-2.33 1.09-4.61 2.47-6.8 4.1-3.5 2.62-6.57 5.86-9.1 9.61-2.18 3.2-5.06 8.51-6.4 15.59-1.21 6.18-1.08 13.16.36 19.61C2.54 220.6 5.2 227 8.88 232.87c1.937 3.04 3.79 5.59 5.575 7.668.523.64 1.66 1.94 2.166 2.52h-.01l.56.628c.45.495.76.86 1.06 1.226.26.32.49.583.7.8l.1.1c1.94 2.287 4.44 5.273 6.57 8.085a87.531 87.531 0 0 1 4.95 7.17c1.58 2.546 2.72 4.79 3.56 7.032.96 2.55 1.59 5.33 1.88 8.26.27 2.56.27 5.43.01 8.73-.17 1.96-.45 4.02-.84 6.31-.39 2.21.48 4.47 2.25 5.88 1.14.89 2.53 1.36 3.94 1.36.8 0 1.6-.15 2.36-.46 2.19-.88 4.35-2 6.39-3.29 3.67-2.28 6.98-5.22 9.86-8.72 3.46-4.23 6.17-9.3 7.82-14.67 1.83-5.9 2.48-12.74 1.83-19.24-.62-6.34-2.47-12.96-5.34-19.15z" fill-rule="evenodd"/>
	</symbol>
</svg>
